# xmcd
# 
# Track frame offsets:
#     150
#     11790
#     24055
#     35707
#     47927
#     62197
#     74882
#     85212
#     100082
#     112675
#     126220
#     140332
#     153745
#     166860
#     176820
#     188897
#     204070
#     217442
#     232450
#     245182
#     260407
#     272437
#     287245
#     301630
# 
# Disc length: 4189
# 
# Revision: 8
# Processed by: cddbd v1.5.2PL0 Copyright (c) Steve Scherf et al.
# Submitted via: fre:ac v1.0.31
# 
DISCID=6a105b18
DTITLE=Muddy Waters - Muddy Waters:  The Chess Box, 1947-1972 Disc 1
DYEAR=1989
DGENRE=Blues
TTITLE0=Gypsy Woman
TTITLE1=Good Looking Woman
TTITLE2=Mean Disposition
TTITLE3=I Can't Be Satisfied
TTITLE4=I Feel Like Going Home
TTITLE5=Train Fare Home Blues
TTITLE6=Mean Red Spider
TTITLE7=Streamline Woman
TTITLE8=Little Geneva
TTITLE9=Rollin' and Tumblin', Part 1
TTITLE10=Rolling Stone
TTITLE11=Walkin' Blues
TTITLE12=Louisiana Blues
TTITLE13=Evans Shuffle
TTITLE14=Long Distance Call
TTITLE15=Honey Bee
TTITLE16=She Moves Me
TTITLE17=Still a Fool
TTITLE18=Stuff You Gotta Watch
TTITLE19=Standing Around Crying
TTITLE20=Flood
TTITLE21=Baby Please Don't Go
TTITLE22=Blow Wind Blow
TTITLE23=Hoochie Coochie Man
EXTD=
EXTT0=
EXTT1=
EXTT2=
EXTT3=
EXTT4=
EXTT5=
EXTT6=
EXTT7=
EXTT8=
EXTT9=
EXTT10=
EXTT11=
EXTT12=
EXTT13=
EXTT14=
EXTT15=
EXTT16=
EXTT17=
EXTT18=
EXTT19=
EXTT20=
EXTT21=
EXTT22=
EXTT23=
PLAYORDER=
